<svg id="Layer_1" data-name="Layer 1" xmlns="http://www.w3.org/2000/svg" viewBox="0 0 116.96 100"><path d="M114.29,55.17,103.78,29A6.22,6.22,0,0,0,98,25H89.72V6.25A6.24,6.24,0,0,0,83.47,0h-50a6.24,6.24,0,0,0-6.24,6.25V25H19a6.25,6.25,0,0,0-5.82,4L2.67,55.15a6.43,6.43,0,0,0-.43,2.26l0,36.3A6.26,6.26,0,0,0,8.53,100h99.9a6.25,6.25,0,0,0,6.25-6.29l0-36.3A6.24,6.24,0,0,0,114.29,55.17ZM36.61,9.37H80.35V37.49H36.61Zm-15.49,25h6.12v12.5H89.72V34.37h6.12l7.94,20.31H13.16ZM11.67,90.61l.14-26.56h93.34l.16,26.56Z"/></svg>